<svg width="253" height="138" viewBox="0 0 253 138" fill="none" xmlns="http://www.w3.org/2000/svg">
<path fill-rule="evenodd" clip-rule="evenodd" d="M64.0736 52.8137C64.0328 41.7682 55.0453 32.8555 43.9998 32.9069C32.9536 32.9583 24.0332 41.9543 24.0741 52.9999C24.115 64.0454 33.1016 72.9581 44.1479 72.9066C55.1934 72.8552 64.1145 63.8592 64.0736 52.8137ZM43.9996 7.81739C68.2994 7.71654 88.081 27.3338 88.1819 51.6344C88.2827 75.935 68.6646 95.7158 44.3648 95.8166C20.0642 95.9175 0.283462 76.3002 0.182609 51.9996C0.0817556 27.699 19.699 7.91824 43.9996 7.81739Z" fill="#FFC735"/>
<path fill-rule="evenodd" clip-rule="evenodd" d="M115.066 63.0054C150.557 62.8403 179.208 30.4356 179.061 -9.37297C179.033 -16.8368 184.405 -22.913 191.06 -22.9439C197.714 -22.9749 203.131 -16.9489 203.159 -9.48511C203.361 45.2511 163.965 89.8081 115.166 90.0352C108.512 90.0662 103.095 84.0402 103.068 76.5764C103.04 69.1126 108.412 63.0364 115.066 63.0054Z" fill="#B4D51E"/>
<path d="M136.893 110.762C187.409 110.527 228.191 64.4024 227.981 7.74067C227.953 0.285373 233.319 -5.78386 239.966 -5.81479C246.613 -5.84572 252.024 0.173354 252.051 7.62865C252.316 79.2018 200.803 137.464 136.993 137.761C130.347 137.792 124.936 131.773 124.908 124.318C124.88 116.862 130.247 110.793 136.893 110.762Z" fill="#E5E0D5"/>
</svg>
